<svg id="Layer_1" data-name="Layer 1" xmlns="http://www.w3.org/2000/svg" viewBox="0 0 1200 327.5"><defs><style>.cls-1{fill:#11072b;}</style></defs><rect class="cls-1" x="878.8" y="198.8" width="25" height="98.16"/><path class="cls-1" d="M865.3,257.5c0-17-8.2-30-31.5-30-14.1,0-23.9,3.9-28.2,6.2l4.3,15.6a42.7,42.7,0,0,1,19.2-4.9c9.1,0,11.2,3,11.2,5.8v.5c-23.1,0-39.5,8.2-39.5,26.4,0,11.3,8.5,21.4,22.5,21.4,7.3,0,14.1-2.1,18.8-7.5h.5l1.3,6h22.5a98.7,98.7,0,0,1-1.1-16.6Zm-24.2,13.9a13.8,13.8,0,0,1-.3,3.6,9.2,9.2,0,0,1-8.5,6.2c-4.3,0-7.1-2.2-7.1-6.5,0-6,5.7-8.8,15.9-8.8Z"/><path class="cls-1" d="M1059.9,257.5c0-17-8.2-30-31.5-30-14.1,0-23.9,3.9-28.1,6.2l4.2,15.6a43.1,43.1,0,0,1,19.2-4.9c9.1,0,11.2,3,11.2,5.8v.5c-23.1,0-39.5,8.2-39.5,26.4,0,11.3,8.6,21.4,22.5,21.4,7.3,0,14.1-2.1,18.8-7.5h.5l1.3,6H1061a98.7,98.7,0,0,1-1.1-16.6Zm-24.2,13.9a20.6,20.6,0,0,1-.2,3.6,9.4,9.4,0,0,1-8.6,6.2c-4.3,0-7-2.2-7-6.5,0-6,5.6-8.8,15.8-8.8Z"/><path class="cls-1" d="M1173.5,229l-6.2,30.7c-.8,3.4-1.7,8.4-2.5,12h-.6c-.8-3.5-1.9-8.4-2.9-12.2l-8.1-30.5h-27.6l24.8,62a7.2,7.2,0,0,1,1,3.6,5.2,5.2,0,0,1-1.2,3,21.2,21.2,0,0,1-8,6.3,34.3,34.3,0,0,1-8.6,2.6l5.1,21a40.3,40.3,0,0,0,22.6-10c7.4-6.4,14-16.8,24.2-45.3L1200,229Z"/><path class="cls-1" d="M779.5,246.6a30.2,30.2,0,0,1,10.8,1.6l3.4-18.2a49,49,0,0,0-15.5-2.3c-26.6,0-39.9,16.5-39.9,35.9,0,21.5,14.2,34.7,36.8,34.7,7.6,0,14.7-.9,18.6-2.9l-2.6-18.2a28,28,0,0,1-10.9,1.8c-8.8,0-16.4-5.2-16.4-16.3S770.3,246.6,779.5,246.6Z"/><path class="cls-1" d="M1095.8,241.3h-.6l-.9-12.3H1073c.4,5.7.5,12.2.5,23v45h25V263.4c0-1.6.2-3.2.3-4.3,1.4-5.5,6.4-8.5,13.7-8.5a27.4,27.4,0,0,1,6.3.7V227.9a18.7,18.7,0,0,0-4.9-.4C1107.9,227.5,1099.4,231,1095.8,241.3Z"/><path class="cls-1" d="M963.3,236.3H963c-3.6-5.6-9.3-8.8-17.6-8.8-16.9,0-30.7,14.2-30.7,35.6,0,19.8,12,33,28.5,33,6.8,0,12.9-2.4,17-7.6h.3v3.1c0,10.5-6.9,15.3-15.7,15.3a42.2,42.2,0,0,1-19.6-5l-4.7,18.8c6.3,3.3,15.8,5.1,25.2,5.1s20.9-1.8,28.6-8.4,10.6-18.5,10.6-30.4V249.9c0-10.8.3-16.6.6-20.9H964.1Zm-3.2,29.9a21.5,21.5,0,0,1-.4,5.1A8.8,8.8,0,0,1,951,278c-6.9,0-11.1-6.4-11.1-15.3,0-10.7,5.1-16.5,11.1-16.5s7.7,2.7,8.8,7.7a31.6,31.6,0,0,1,.3,3.2Z"/><path class="cls-1" d="M318.5,3.3,265.1,166.1h56.4l6.6-22.1h53.6l7.2,22.1h58.6L393.9,3.3Zm22.3,98.4,5.8-22.4c4.7-17.7,7.2-31.8,7.2-31.8h1.1s3.4,14.1,8.1,31.8l5.8,22.4Z"/><polygon class="cls-1" points="209.7 3.3 153.1 3.3 153.1 166.1 246.8 166.1 262.6 117.4 209.7 117.4 209.7 3.3"/><path class="cls-1" d="M77.1,3.3H0V166.1H56.6V126H77.1c38.4,0,64.4-20.4,64.4-60.8S119.4,3.3,77.1,3.3ZM70.2,80.7H56.6V50.8H70.2c8.5,0,13.5,4.2,13.5,15S78.5,80.7,70.2,80.7Z"/><path class="cls-1" d="M917.2,126h19.4l13.2,40.1H1003l-18.2-55.9c11-10.1,17.3-25.1,17.3-45,0-41.7-22.1-61.9-64.4-61.9H860.6V166.1h56.6Zm0-75.2h13.6c8.5,0,13.5,4.2,13.5,15s-5.2,14.9-13.5,14.9H917.2Z"/><path class="cls-1" d="M849.3,84.8C849.3,29.6,819.2,0,767.2,0s-82,29.6-82,84.8,30.1,84.6,82,84.6S849.3,139.8,849.3,84.8Zm-107.5,0c0-22,13.2-30.4,25.4-30.4s25.5,8.4,25.5,30.4c0,24.6-13.2,33-25.5,33S741.8,109.7,741.8,84.8Z"/><polygon class="cls-1" points="564 166.1 620.7 166.1 620.7 120.2 657.5 120.2 657.5 74.1 620.7 74.1 620.7 51.9 681.4 51.9 681.4 3.3 564 3.3 564 166.1"/><polygon class="cls-1" points="425.3 51.9 487.6 51.9 487.6 166.1 544.3 166.1 544.3 51.9 544.3 3.3 425.3 3.3 425.3 51.9"/><path class="cls-1" d="M1025.5,166.1h48.4l-.2-45.1.2-28.8h1.5l14.6,38.2,36.8.3,14.8-38.5,1.4.2c.1,1.1,0,28.7,0,28.7v45h56.9V3.3h-61.6l-16.8,35.4c-1.2,2.4-2.3,4.7-3.2,6.8l-9.1,20.8h-1.5l-29.1-63H1017l.5,139Z"/></svg>